<svg width="16" height="16" viewBox="0 0 16 16" fill="none" xmlns="http://www.w3.org/2000/svg">
<g clip-path="url(#clip0_31_10086)">
<path fill-rule="evenodd" clip-rule="evenodd" d="M8.7066 10.7068C8.5191 10.894 8.26493 10.9992 7.99993 10.9992C7.73493 10.9992 7.48077 10.894 7.29327 10.7068L3.52127 6.93609C3.33376 6.74849 3.22845 6.49409 3.22852 6.22885C3.22858 5.96361 3.334 5.70926 3.5216 5.52176C3.7092 5.33425 3.9636 5.22894 4.22884 5.229C4.49408 5.22907 4.74843 5.33449 4.93593 5.52209L7.99993 8.58609L11.0639 5.52209C11.2525 5.33984 11.505 5.23892 11.7672 5.24108C12.0294 5.24323 12.2803 5.34828 12.4658 5.5336C12.6513 5.71893 12.7565 5.96969 12.7589 6.23189C12.7613 6.49408 12.6607 6.74673 12.4786 6.93542L8.70727 10.7074L8.7066 10.7068Z" fill="#111111"/>
</g>
<defs>
<clipPath id="clip0_31_10086">
<rect width="16" height="16" fill="white"/>
</clipPath>
</defs>
</svg>
